<?xml version="1.0" standalone="no"?>
<!DOCTYPE svg PUBLIC "-//W3C//DTD SVG 20010904//EN"
 "http://www.w3.org/TR/2001/REC-SVG-20010904/DTD/svg10.dtd">
<svg version="1.0" xmlns="http://www.w3.org/2000/svg"
 width="512.000000pt" height="512.000000pt" viewBox="0 0 512.000000 512.000000"
 preserveAspectRatio="xMidYMid meet">
<metadata>
Created by potrace 1.11, written by Peter Selinger 2001-2013
</metadata>
<g transform="translate(0.000000,512.000000) scale(0.100000,-0.100000)"
fill="#000000" stroke="none">
<path d="M2490 4879 c-179 -28 -349 -155 -429 -321 -60 -125 -82 -227 -86
-399 -4 -175 25 -293 102 -417 78 -126 203 -213 451 -314 160 -66 274 -99 327
-94 19 2 35 0 35 -4 0 -15 93 -99 158 -143 257 -173 471 -220 677 -149 226 78
380 276 387 497 8 273 -159 531 -387 594 -78 22 -179 25 -234 6 -60 -20 -133
-57 -178 -91 -17 -13 -33 -24 -35 -24 -2 0 -2 57 -2 128 2 142 -18 248 -61
334 -100 198 -258 334 -445 383 -70 19 -208 25 -280 14z m252 -220 c136 -39
269 -180 313 -331 29 -102 25 -271 -10 -451 -16 -83 -102 -241 -169 -314 -30
-32 -53 -30 -191 22 -229 85 -366 165 -425 247 -56 77 -83 178 -82 303 4 270
85 437 246 511 97 44 196 48 318 13z m975 -750 c71 -34 105 -70 145 -154 99
-212 34 -412 -167 -511 -55 -26 -69 -29 -160 -29 -90 1 -108 4 -176 33 -116
50 -299 170 -299 196 0 11 64 112 116 183 97 131 264 275 359 307 52 18 107
10 182 -25z"/>
<path d="M1868 3595 c-2 -2 -21 -5 -44 -8 -282 -39 -516 -366 -585 -817 -13
-87 -17 -354 -6 -452 39 -360 157 -752 333 -1108 28 -58 51 -105 50 -106 -5
-4 -280 -227 -302 -246 -16 -12 -49 -42 -73 -65 -42 -41 -43 -45 -38 -90 5
-50 28 -78 73 -89 39 -10 70 3 136 59 35 30 113 93 173 142 61 48 113 93 117
99 9 14 7 17 78 -104 96 -164 162 -252 255 -342 142 -139 280 -164 442 -81 89
45 251 157 432 297 69 53 128 96 131 96 3 0 14 -15 24 -32 10 -18 52 -83 92
-144 60 -90 79 -112 106 -121 72 -22 145 36 133 105 -3 18 -43 90 -89 160
-122 187 -117 163 -45 230 93 85 294 288 375 378 195 215 307 369 375 509 66
138 87 230 84 375 -5 221 -66 380 -204 523 -142 150 -331 212 -556 183 -139
-18 -355 -124 -463 -227 -18 -17 -35 -30 -37 -28 -1 2 -17 47 -34 99 -126 376
-439 708 -741 786 -52 13 -184 26 -192 19z m173 -228 c102 -35 176 -84 279
-187 159 -158 284 -380 317 -563 9 -52 9 -198 0 -252 -45 -261 -216 -528 -539
-840 -191 -184 -315 -288 -325 -273 -57 92 -181 409 -253 643 -25 84 -65 279
-76 370 -4 33 -8 74 -10 90 -5 41 -4 294 0 325 2 14 7 48 10 77 15 126 78 309
142 414 64 107 162 188 249 210 59 14 140 9 206 -14z m1499 -628 c80 -18 168
-71 223 -134 81 -93 128 -233 129 -385 0 -81 -4 -108 -30 -183 -48 -138 -156
-295 -365 -531 -96 -107 -385 -396 -397 -396 -11 0 -98 180 -149 307 -50 127
-119 351 -111 365 1 2 -3 15 -9 29 -21 57 -33 284 -19 369 14 88 19 106 44
170 24 60 79 145 129 196 74 78 263 180 365 197 49 8 146 6 190 -4z m-913
-946 c6 -68 67 -278 126 -434 27 -71 81 -189 143 -313 l39 -78 -40 -35 c-64
-56 -302 -233 -403 -300 -123 -82 -170 -100 -220 -85 -56 17 -200 168 -260
273 -11 19 -45 77 -76 128 -31 52 -56 98 -56 101 0 3 53 51 117 106 221 187
470 444 578 597 43 61 50 66 52 40z"/>
</g>
</svg>
