<svg xmlns="http://www.w3.org/2000/svg" version="1" viewBox="0 0 251 251"><g fill="none"><path d="M0 0h251v251H0z" paint-order="stroke fill markers"/><path stroke="#dd1744" stroke-linecap="round" stroke-linejoin="round" stroke-width="10" d="M122 17c12-2 23 2 30 14 6 10 4 26 1 35l-8 13c-2 3-4 5-10 3l-10-4c-6-2-11-5-16-9-8-8-8-19-6-30s7-19 19-22zM176 53h-2c-3 0-5 1-8 3l-13 12c-2 4-9 11-8 15 0 2 2 3 3 5 4 3 9 6 15 8 2 2 5 2 8 3 13 1 25-9 26-21 0-5-1-9-3-13-3-7-9-12-18-12zM64 216c31-27 88-63 66-107-13-27-43-43-58-13-17 33-1 81 25 121 11 14 15 16 27 8 27-19 46-37 60-55 11-14 15-25 9-42-6-14-18-19-32-16-53 17-20 81 1 111" paint-order="stroke fill markers"/></g></svg>